<svg xmlns="http://www.w3.org/2000/svg" width="1964pt" height="333pt" viewBox="0 0 1964 333"><path d="M1496.645 2.867v256.024c0 16.699 7.789 25.601 24.48 25.601h84.57v28.942a5.237 5.237 0 0 1-1.52 4.046 5.22 5.22 0 0 1-4.042 1.52h-136.871c-42.282 0-48.961-23.375-48.961-44.523V20.68c0-12.246 4.453-17.813 18.918-17.813h63.426M1339.75 2.867v299.438c0 13.355-5.566 16.695-16.691 16.695h-64.54V19.566c0-10.02 3.336-16.699 17.801-16.699h63.43M0 46.281C0 21.793 0 2.867 40.059 2.867h173.59v30.055a4.12 4.12 0 0 1-4.454 4.453H104.598c-13.352 0-20.028 6.68-20.028 21.148v80.149h122.403v32.281a4.138 4.138 0 0 1-1.192 3.262 4.133 4.133 0 0 1-3.261 1.191H84.57v126.899c0 12.242-6.68 16.695-20.03 16.695H0V46.281M339.387 2.867v241.555c0 21.148 3.34 35.617 17.804 43.41a82.544 82.544 0 0 0 72.329 0c13.355-7.793 18.918-20.035 18.918-43.41V18.453c0-10.02 3.34-15.586 17.804-15.586h63.426V236.63c2.605 40.36-24.938 76.46-64.54 84.598a293.715 293.715 0 0 1-139.093 0c-45.62-13.356-66.765-40.075-66.765-84.598V18.453c0-10.02 3.34-16.7 15.578-16.7h64.539M1871.64 2.867c-13.949-1.191-26.503 8.469-28.93 22.262l-51.187 218.18h-1.113L1735.887 2.867h-72.328c-14.465 0-18.918 6.68-18.918 18.926v298.32h31.156c4.453 0 6.68-2.226 6.68-7.793V61.863h4.449L1752.578 319h43.399c16.691 0 22.253-6.68 26.703-22.262l58.976-234.875h4.453V319h57.86c14.468 0 20.031-5.566 20.031-18.922V2.868h-92.36M913.566 174.293h-81.23V319h64.539c11.129 0 16.691-3.34 16.691-16.695V174.293" style="stroke:none;fill-rule:nonzero;fill:#000;fill-opacity:1"/><path d="M909.113 113.07a9.022 9.022 0 0 0 4.453-8.906V2.867h-63.425c-14.47 0-17.805 6.68-17.805 16.7V173.18l76.777-60.11" style="stroke:none;fill-rule:nonzero;fill:#fb0020;fill-opacity:1"/><path d="M630.93 294.512c35.605-4.453 46.734-25.602 46.734-56.77V19.566c0-13.359 6.676-16.699 15.578-16.699h64.54v205.934c0 50.09-11.13 75.691-40.06 97.957-15.577 11.129-42.284 24.488-102.374 24.488-33.38 0-48.961-2.226-51.184-2.226-2.226 0-4.453-2.227-4.453-4.454v-26.714c16.691-1.114 47.848 0 71.219-3.34M1037.082 2.867c-40.059 0-40.059 20.04-40.059 43.414v81.258c0 2.227-1.113 2.227-1.113 3.34l-55.637 43.414h56.75V319h64.54c13.351 0 20.027-4.453 20.027-16.695V174.293h117.953a4.125 4.125 0 0 0 3.258-1.191 4.107 4.107 0 0 0 1.191-3.262v-32.281H1081.59V57.41a18.367 18.367 0 0 1 21.144-21.148h104.598a4.112 4.112 0 0 0 3.258-1.192 4.107 4.107 0 0 0 1.191-3.261V2.867h-174.699" style="stroke:none;fill-rule:nonzero;fill:#000;fill-opacity:1"/></svg>