<svg xmlns="http://www.w3.org/2000/svg" viewBox="0 0 400 400"><defs><linearGradient id="a" x1="481.7688" x2="488.8338" y1="-363.7171" y2="-365.8058" gradientTransform="translate(-37500.656 28577.68) scale(77.3572)" gradientUnits="userSpaceOnUse"><stop offset="0" stop-color="#FFE419"/><stop offset="0.34" stop-color="#FFF"/><stop offset="0.66" stop-color="#FFF"/><stop offset="1" stop-color="#FFE419"/></linearGradient><linearGradient id="b" x1="482.3754" x2="489.1586" y1="-364.3647" y2="-366.57" gradientTransform="translate(-37500.656 28577.68) scale(77.3572)" gradientUnits="userSpaceOnUse"><stop offset="0" stop-color="#FFE419"/><stop offset="0.355" stop-color="#FFF"/><stop offset="0.645" stop-color="#FFF"/><stop offset="1" stop-color="#FFE419"/></linearGradient><linearGradient id="c" x1="482.9458" x2="489.4694" y1="-364.9744" y2="-367.2999" gradientTransform="translate(-37500.656 28577.68) scale(77.3572)" gradientUnits="userSpaceOnUse"><stop offset="0" stop-color="#FFE419"/><stop offset="0.37" stop-color="#FFF"/><stop offset="0.63" stop-color="#FFF"/><stop offset="1" stop-color="#FFE419"/></linearGradient><linearGradient id="d" x1="483.4862" x2="489.7654" y1="-365.5518" y2="-368" gradientTransform="translate(-37500.656 28577.68) scale(77.3572)" gradientUnits="userSpaceOnUse"><stop offset="0" stop-color="#FFE419"/><stop offset="0.385" stop-color="#FFF"/><stop offset="0.615" stop-color="#FFF"/><stop offset="1" stop-color="#FFE419"/></linearGradient><linearGradient id="e" x1="484.0045" x2="490.0534" y1="-366.1029" y2="-368.6767" gradientTransform="translate(-37500.656 28577.68) scale(77.3572)" gradientUnits="userSpaceOnUse"><stop offset="0" stop-color="#FFE419"/><stop offset="0.4" stop-color="#FFF"/><stop offset="0.6" stop-color="#FFF"/><stop offset="1" stop-color="#FFE419"/></linearGradient><linearGradient id="f" x1="484.5003" x2="490.3333" y1="-366.6295" y2="-369.3334" gradientTransform="translate(-37500.656 28577.68) scale(77.3572)" gradientUnits="userSpaceOnUse"><stop offset="0" stop-color="#FFE626"/><stop offset="0.415" stop-color="#FFF"/><stop offset="0.585" stop-color="#FFF"/><stop offset="1" stop-color="#FFE419"/></linearGradient><linearGradient id="g" x1="484.9738" x2="490.6053" y1="-367.1339" y2="-369.9736" gradientTransform="translate(-37500.656 28577.68) scale(77.3572)" gradientUnits="userSpaceOnUse"><stop offset="0" stop-color="#FFE733"/><stop offset="0.43" stop-color="#FFF"/><stop offset="0.57" stop-color="#FFF"/><stop offset="1" stop-color="#FFE419"/></linearGradient><linearGradient id="h" x1="485.4353" x2="490.873" y1="-367.6225" y2="-370.602" gradientTransform="translate(-37500.656 28577.68) scale(77.3572)" gradientUnits="userSpaceOnUse"><stop offset="0" stop-color="#FFE940"/><stop offset="0.445" stop-color="#FFF"/><stop offset="0.555" stop-color="#FFF"/><stop offset="1" stop-color="#FFE419"/></linearGradient><linearGradient id="i" x1="485.8909" x2="491.1303" y1="-368.1044" y2="-371.2216" gradientTransform="translate(-37500.656 28577.68) scale(77.3572)" gradientUnits="userSpaceOnUse"><stop offset="0" stop-color="#FFEA4C"/><stop offset="0.46" stop-color="#FFF"/><stop offset="0.54" stop-color="#FFF"/><stop offset="1" stop-color="#FFE419"/></linearGradient><linearGradient id="j" x1="486.3512" x2="491.3969" y1="-368.5891" y2="-371.847" gradientTransform="translate(-37500.656 28577.68) scale(77.3572)" gradientUnits="userSpaceOnUse"><stop offset="0" stop-color="#FFEC59"/><stop offset="0.475" stop-color="#FFF"/><stop offset="0.525" stop-color="#FFF"/><stop offset="1" stop-color="#FFE419"/></linearGradient></defs><path fill="#FFE100" d="M0 0h400v400H0z"/><path fill="url(#a)" d="M303.055 283.241c-88.936 15.696-177.988 36.567-266.773 62.811A2444.015 2444.015 0 0 0 0 357.088v31.352a2469.847 2469.847 0 0 0 45.018-12.84c88.779-26.253 174.865-57.163 258.037-92.359z"/><path fill="url(#b)" d="M328.305 224.411c-85.362 18.158-170.783 40.988-255.911 68.666A2533.007 2533.007 0 0 0 0 317.822v26.398a2543.43 2543.43 0 0 0 80.944-24.836c85.125-27.678 167.645-59.457 247.361-94.973z"/><path fill="url(#c)" d="M352.505 168.243c-82.116 20.282-164.225 44.924-245.993 74.075A2577.454 2577.454 0 0 0 0 282.959V304.5a2582.663 2582.663 0 0 0 115.12-38.015c81.768-29.154 160.953-62.008 237.385-98.242z"/><path fill="url(#d)" d="M375.6 114.373c-79.037 22.419-158.02 48.891-236.619 79.533A2630.28 2630.28 0 0 0 0 252.73v15.81a2634.892 2634.892 0 0 0 147.6-52.548c78.59-30.645 154.657-64.624 228-101.619z"/><path fill="url(#e)" d="M397.862 62.404c-76.136 24.571-152.172 52.898-227.795 85.076C111.877 172.242 55.165 198.754 0 226.894v9.334a2708.369 2708.369 0 0 0 178.613-68.665c75.617-32.179 148.757-67.335 219.249-105.159z"/><path fill="url(#f)" d="M400 23.069V19.19c-66.824 24.93-133.52 52.75-199.866 83.501C131.206 134.646 64.45 168.936 0 205.332v2.218c69.723-25.748 139.323-54.632 208.545-86.716C274.383 90.312 338.232 57.655 400 23.069z"/><path fill="url(#g)" d="M25.517 172.214c70.84-28.989 141.541-61.179 211.831-96.617A2981.892 2981.892 0 0 0 377.795 0h-23.881a2983.426 2983.426 0 0 0-124.771 59.334c-70.279 35.439-138.204 73.157-203.626 112.88z"/><path fill="url(#h)" d="M60.879 134.162c68.341-31.261 136.559-65.454 204.378-102.608A3216.599 3216.599 0 0 0 321.49 0h-32.454a3107.342 3107.342 0 0 0-31.682 17.13C189.537 54.286 124.001 93.382 60.879 134.162z"/><path fill="url(#i)" d="M272.151 0h-27.883A3410.823 3410.823 0 0 0 95.987 96.363 3422.618 3422.618 0 0 0 272.151 0z"/><path fill="url(#j)" d="M231.041 0h-17.579a3710.807 3710.807 0 0 0-82.272 58.539A3747.055 3747.055 0 0 0 231.041 0z"/><path fill="#150301" d="m144.981 385.399 21.598-97.315 26.617.003-11.603 51.759 21.499-25.953h29.761l-26.706 32.446 11.01 39.061H190.6l-10.976-37.009-8.693 37.009h-25.95zm-96.109-48.915 18.754 48.914h25.509l21.983-97.315-26.273.003-11.121 49.501-18.404-49.532H32.683l-21.718 97.344h26.788c3.041-15.597 7.111-32.07 11.119-48.915zm83.363 48.915 15.935-71.467h-26.144l-15.932 71.467h26.141zm-8.869-87.124c0 2.243.527 10.172 14.835 10.172 11.885 0 16.468-7.616 16.468-13.302 0-3.828-3.129-10.471-14.841-10.471-10.788.001-16.462 7.214-16.462 13.601zm251.453 14.693c-11.178-3.329-25.03 2.194-31.867 11.657.664-2.933 1.374-6.344 2.177-10.272H318.6l-15.525 71.046h26.401l8.807-40.296c1.619-7.416 7.582-10.585 12.863-9.22 2.277.616 5.409 2.337 4.372 8.516l-8.961 40.999h26.09l11.959-54.717c2.534-12.059-7.37-16.989-9.787-17.713zm-88.773 65.986c11.461-9.372 17.129-25.218 16.947-40.127-.194-14.33-12.33-27.923-33.443-27.923-40.247 0-46.101 31.371-47.264 37.097-2.947 14.484.331 33.284 19.236 38.266 12.474 3.293 31.98 2.936 44.524-7.313zm-29.525-41.421c1.892-5.213 7.043-6.367 9.371-6.39 5.769-.049 7.348 3.372 6.846 6.595-1.388 8.935-4.483 20.273-5.626 23.887-.014.048-.023.094-.037.134-1.257 3.947-4.976 6.245-9.354 6.245-4.432 0-7.111-2.787-6.729-6.339.65-5.996 4.446-21.153 5.529-24.132z"/></svg>