<svg xmlns="http://www.w3.org/2000/svg" width="200" height="36.093304" version="1.0"><path d="M480.019 802.104c0-4.981 3.691-8.657 9.852-8.657 2.599 0 5.054.411 7.591 1.596l2.304-3.151c-3.188-1.686-6.257-2.567-10.973-2.567-9.833 0-17.064 4.735-17.064 12.777v.003c0 8.04 7.231 12.777 17.064 12.777 4.716 0 7.426-.691 10.749-2.115l-2.367-3.62c-2.513 1.339-4.705 1.613-7.304 1.613-6.161 0-9.852-3.668-9.852-8.65M517.542 814.887c-9.521 0-16.389-4.739-16.389-12.781 0-8.045 6.868-12.78 16.389-12.78 9.521 0 16.387 4.735 16.387 12.78 0 8.042-6.866 12.781-16.387 12.781m0-21.585c-5.239 0-8.131 3.936-8.131 8.808s2.892 8.805 8.131 8.805c5.236 0 8.128-3.933 8.128-8.805s-2.892-8.808-8.128-8.808M558.683 800.257v-10.286h7.868v24.272h-7.868v-9.251h-12.027v9.251h-7.852v-24.272h7.852v10.286h12.027zM458.699 789.971h8.287v24.272h-8.287v-24.272zM434.933 803.134l-.002-2.322c3.899-3.013 7.87-7.019 10.783-10.841h9.274c-3.228 3.79-8.176 8.296-11.822 10.561 4.278.179 9.052 1.91 9.052 6.822 0 6.308-6.739 7.458-13.55 7.458-5.564 0-10.694-.254-13.761-.507v-24.334h7.728v20.674c1.431.153 2.969.323 6.07.323 3.983 0 5.998-1.314 5.998-3.614 0-1.958-.834-4.305-9.77-4.22" style="fill:#d7063b;fill-opacity:1;fill-rule:nonzero;stroke:none" transform="matrix(1.3414 0 0 -1.3414 -564.966 1093.887)"/></svg>